<svg width="40" height="41" viewBox="0 0 40 41" fill="none" xmlns="http://www.w3.org/2000/svg">
<path d="M3.69688 32.544C3.69755 32.5569 3.69897 32.5698 3.70115 32.5826C3.75114 32.654 3.8126 32.7155 3.8641 32.7855C4.23756 33.2943 4.63296 33.7839 5.05021 34.2546C5.16451 34.3832 5.27889 34.5104 5.39604 34.6362C5.82569 35.0963 6.27635 35.5351 6.74795 35.9524C6.83512 36.0296 6.91659 36.1095 7.00376 36.1853C8.16601 37.181 9.43862 38.0403 10.7966 38.7462C10.8509 38.7748 10.908 38.799 10.9638 38.8277C11.5685 39.135 12.1886 39.4112 12.8216 39.6551C12.9646 39.7066 13.0946 39.7552 13.2303 39.7981C13.7934 40.001 14.365 40.1787 14.9452 40.3311C15.1167 40.3769 15.2882 40.424 15.4625 40.464C16.0342 40.5969 16.6058 40.6984 17.1903 40.7813C17.3675 40.807 17.5419 40.8413 17.7206 40.8628C19.226 41.0457 20.7481 41.0457 22.2537 40.8628C22.4323 40.8413 22.6066 40.807 22.7839 40.7813C23.3683 40.6984 23.9457 40.5969 24.5117 40.464C24.686 40.424 24.8575 40.3769 25.029 40.3311C25.613 40.1787 26.1846 40.0011 26.7439 39.7981C26.8868 39.7495 27.0169 39.7009 27.1526 39.6551C27.7856 39.4112 28.4057 39.1351 29.0104 38.8277C29.0662 38.7991 29.1233 38.7748 29.1777 38.7462C30.5401 38.0411 31.817 37.1819 32.9833 36.1853C33.0705 36.1096 33.152 36.0296 33.2392 35.9524C33.7155 35.5332 34.1662 35.0944 34.5911 34.6362C34.7082 34.5104 34.8226 34.3832 34.9369 34.2546C35.3552 33.785 35.7506 33.2953 36.123 32.7856C36.1744 32.7156 36.2359 32.6541 36.286 32.5827C36.2925 32.5702 36.2983 32.5573 36.3031 32.5441C41.2323 25.6362 41.2323 16.3608 36.3031 9.45294C36.2983 9.43971 36.2926 9.42681 36.286 9.41434C36.236 9.34291 36.1745 9.28145 36.123 9.21144C35.7505 8.70267 35.3552 8.21298 34.9369 7.7423C34.8226 7.61369 34.7082 7.48649 34.5911 7.36072C34.1604 6.9006 33.7098 6.46182 33.2392 6.04457C33.152 5.96736 33.0705 5.8874 32.9833 5.81161C31.8211 4.81592 30.5485 3.95662 29.1906 3.25074C29.1362 3.22218 29.0791 3.1979 29.0233 3.16926C28.4186 2.86195 27.7985 2.5857 27.1655 2.34179C27.0226 2.29037 26.8925 2.24172 26.7568 2.19885C26.1937 1.99596 25.6221 1.81827 25.0419 1.66579C24.8704 1.62007 24.6989 1.57293 24.5246 1.5329C23.9529 1.40001 23.3813 1.29852 22.7968 1.21563C22.6196 1.18992 22.4452 1.15559 22.2666 1.13415C20.7611 0.951191 19.239 0.951191 17.7334 1.13415C17.5548 1.15559 17.3805 1.18992 17.2032 1.21563C16.6188 1.29852 16.0414 1.40001 15.4754 1.5329C15.3011 1.57293 15.1296 1.62007 14.9581 1.66579C14.3731 1.81819 13.8015 1.99587 13.2432 2.19885C13.1003 2.24741 12.9702 2.29607 12.8345 2.34179C12.2016 2.5857 11.5814 2.86187 10.9767 3.16926C10.9209 3.19781 10.8638 3.2221 10.8095 3.25074C9.45151 3.95671 8.1789 4.81592 7.01665 5.81161C6.92949 5.8874 6.84801 5.96736 6.76084 6.04457C6.28447 6.46283 5.83381 6.90152 5.40894 7.36072C5.29179 7.48649 5.17741 7.61369 5.06311 7.7423C4.64485 8.21298 4.24945 8.70267 3.877 9.21144C3.82558 9.28145 3.76412 9.34291 3.71405 9.41434C3.70752 9.42681 3.70174 9.43971 3.69688 9.45294C-1.23229 16.3607 -1.23229 25.6361 3.69688 32.544ZM5.32746 29.8401C3.96073 27.5892 3.13543 25.0517 2.91663 22.4274H11.4768C11.5817 24.1303 11.8496 25.819 12.2771 27.4706C9.85905 27.9235 7.51857 28.7215 5.32746 29.8401ZM16.3572 37.753C16.2771 37.7344 16.2 37.7087 16.12 37.6901C15.6083 37.57 15.101 37.4329 14.6051 37.2614C14.5293 37.2357 14.455 37.2056 14.3807 37.1785C13.8891 37.007 13.4047 36.8169 12.9301 36.6068C12.8472 36.5682 12.7658 36.5254 12.6829 36.4868C12.2284 36.2705 11.7845 36.0366 11.351 35.7851L11.0652 35.6121C10.6536 35.3606 10.2534 35.0915 9.86475 34.8047C9.76468 34.7318 9.6647 34.6617 9.56606 34.5818C9.18498 34.296 8.82006 33.9897 8.47139 33.6629C8.37995 33.58 8.28558 33.4985 8.19556 33.4128C7.82972 33.0655 7.48105 32.6982 7.14376 32.3181C7.10089 32.2681 7.05517 32.2224 7.0123 32.1751C8.94734 31.253 10.9973 30.5945 13.1073 30.2173C14.0848 32.9046 15.3761 35.467 16.9544 37.8515C16.7559 37.8158 16.5529 37.7958 16.3572 37.753ZM25.6577 22.4275C25.545 23.9738 25.2817 25.5054 24.8716 27.0005C23.2525 26.8082 21.6233 26.7128 19.9927 26.7147C18.3606 26.7153 16.73 26.8131 15.1095 27.0077C14.7002 25.5101 14.4384 23.9761 14.3278 22.4275H25.6577ZM14.3278 19.5693C14.4406 18.023 14.7038 16.4914 15.1139 14.9962C16.7331 15.1886 18.3622 15.2839 19.9928 15.282C21.6248 15.2839 23.2554 15.1885 24.876 14.9962C25.2849 16.4915 25.5466 18.0231 25.6578 19.5693H14.3278ZM19.9928 37.2156C18.3665 34.9106 17.0289 32.4149 16.0099 29.7843C17.3329 29.6438 18.6623 29.5732 19.9928 29.5728C21.3218 29.5744 22.6498 29.6454 23.9714 29.7857C22.9512 32.4145 21.6152 34.9094 19.9928 37.2156ZM32.8402 32.3196C32.5044 32.6997 32.1543 33.067 31.7884 33.4143C31.6984 33.5 31.6041 33.5815 31.5126 33.6644C31.1601 33.9854 30.7952 34.2917 30.4179 34.5833C30.3193 34.6591 30.2193 34.7262 30.1193 34.8062C29.7306 35.092 29.3304 35.3612 28.9188 35.6137L28.633 35.7866C28.1995 36.04 27.7556 36.2739 27.3011 36.4883C27.2182 36.5269 27.1368 36.5697 27.0539 36.6083C26.5794 36.8227 26.0949 37.0128 25.6033 37.18C25.529 37.2071 25.4604 37.2372 25.379 37.2629C24.8831 37.4287 24.3786 37.5659 23.8641 37.6916C23.7841 37.7102 23.707 37.7359 23.6255 37.7531C23.4297 37.796 23.2267 37.816 23.0281 37.8517C24.607 35.4669 25.8987 32.9039 26.8767 30.2161C28.9867 30.5933 31.0367 31.2518 32.9717 32.174C32.9288 32.2239 32.8831 32.2696 32.8402 32.3196ZM34.6581 29.8401C32.4675 28.7216 30.1275 27.9236 27.7099 27.4706C28.1368 25.8189 28.4044 24.1302 28.5087 22.4274H37.0689C36.85 25.0517 36.0247 27.5892 34.6581 29.8401ZM34.6581 12.1566C36.0248 14.4075 36.8501 16.945 37.0689 19.5693H28.5087C28.4039 17.8664 28.1359 16.1776 27.7084 14.526C30.1265 14.0733 32.467 13.2753 34.6581 12.1566ZM23.6283 4.24376C23.7084 4.26234 23.7855 4.28805 23.8656 4.30664C24.3772 4.42672 24.8845 4.56387 25.3804 4.73536C25.4562 4.76107 25.5305 4.79113 25.6048 4.81826C26.0964 4.98975 26.5809 5.17983 27.0554 5.38992C27.1383 5.42853 27.2198 5.4714 27.3027 5.51C27.7571 5.72629 28.201 5.96016 28.6345 6.2117L28.9203 6.38462C29.3319 6.63616 29.7321 6.90528 30.1208 7.19208C30.2208 7.26493 30.3208 7.33501 30.4195 7.41498C30.8005 7.70077 31.1655 8.00708 31.5141 8.33389C31.6056 8.41679 31.6999 8.49827 31.7899 8.58401C32.1558 8.93126 32.5045 9.29853 32.8418 9.67869C32.8846 9.72868 32.9303 9.77439 32.9732 9.82162C31.0382 10.7438 28.9882 11.4023 26.8782 11.7794C25.9007 9.0922 24.6094 6.52973 23.0311 4.14528C23.2297 4.18087 23.4326 4.20088 23.6283 4.24376ZM19.9928 4.78108C21.6191 7.08607 22.9567 9.58181 23.9757 12.2124C21.3291 12.4972 18.6595 12.4972 16.0129 12.2124L16.0143 12.2109C17.0343 9.58222 18.3703 7.08733 19.9928 4.78108ZM7.14527 9.67718C7.48114 9.29702 7.83123 8.92976 8.19707 8.5825C8.28709 8.49676 8.38146 8.41529 8.4729 8.33239C8.82542 8.01034 9.19034 7.70404 9.56757 7.41348C9.66621 7.33778 9.76619 7.26342 9.86625 7.19057C10.255 6.90478 10.6551 6.63557 11.0667 6.38311L11.3525 6.2102C11.7851 5.95773 12.229 5.72386 12.6844 5.50849C12.7673 5.46989 12.8487 5.42702 12.9316 5.38842C13.4061 5.17405 13.8906 4.98397 14.3822 4.81675C14.4565 4.78962 14.5251 4.75956 14.6065 4.73386C15.1024 4.56806 15.6069 4.4309 16.1214 4.30513C16.2014 4.28654 16.2785 4.26083 16.36 4.24367C16.5558 4.2008 16.7588 4.18078 16.9574 4.14503C15.3791 6.52948 14.0878 9.09195 13.1103 11.7792C11.0003 11.402 8.95027 10.7436 7.01531 9.82137C7.05668 9.77289 7.1024 9.72717 7.14527 9.67718ZM5.32746 12.1566C7.51806 13.2751 9.85805 14.0731 12.2757 14.526C11.8487 16.1777 11.5812 17.8665 11.4768 19.5693H2.91663C3.13552 16.9451 3.96082 14.4076 5.32746 12.1566Z" fill="#3A3C44"/>
</svg>
