<svg width="27" height="27" viewBox="0 0 27 27" fill="none" xmlns="http://www.w3.org/2000/svg">
<path d="M20.631 5.09937C19.789 5.09937 19.1058 5.78259 19.1058 6.62455C19.1058 7.46651 19.789 8.14973 20.631 8.14973C21.473 8.14973 22.1562 7.46651 22.1562 6.62455C22.1493 5.78259 21.473 5.09937 20.631 5.09937Z" fill="white"/>
<path d="M13.854 7.05249C10.3274 7.05249 7.45648 9.92342 7.45648 13.45C7.45648 16.9765 10.3274 19.8475 13.854 19.8475C17.3805 19.8475 20.2515 16.9765 20.2515 13.45C20.2515 9.93033 17.3805 7.05249 13.854 7.05249ZM13.854 17.5562C11.5904 17.5562 9.75461 15.7205 9.75461 13.4569C9.75461 11.1933 11.5904 9.35752 13.854 9.35752C16.1176 9.35752 17.9533 11.1933 17.9533 13.4569C17.9533 15.7136 16.1176 17.5562 13.854 17.5562Z" fill="white"/>
<path d="M18.9333 26.4519H8.56064C4.25423 26.4519 0.75528 22.953 0.75528 18.6466V8.26702C0.75528 3.96062 4.25423 0.46167 8.56064 0.46167H18.9333C23.2397 0.46167 26.7386 3.96062 26.7386 8.26702V18.6466C26.7455 22.9461 23.2397 26.4519 18.9333 26.4519ZM8.56064 2.90472C5.60689 2.90472 3.19833 5.30637 3.19833 8.26702V18.6466C3.19833 21.6003 5.59998 24.0089 8.56064 24.0089H18.9333C21.887 24.0089 24.2956 21.6072 24.2956 18.6466V8.26702C24.2956 5.31327 21.887 2.90472 18.9333 2.90472H8.56064Z" fill="white"/>
</svg>
